<?xml version="1.0" encoding="utf-8"?>
<!-- Generator: Adobe Illustrator 16.2.0, SVG Export Plug-In . SVG Version: 6.00 Build 0)  -->
<!DOCTYPE svg PUBLIC "-//W3C//DTD SVG 1.1//EN" "http://www.w3.org/Graphics/SVG/1.1/DTD/svg11.dtd">
<svg version="1.1" xmlns="http://www.w3.org/2000/svg" xmlns:xlink="http://www.w3.org/1999/xlink" x="0px" y="0px"
	 width="144.529px" height="144.509px" viewBox="0 0 144.529 144.509" enable-background="new 0 0 144.529 144.509"
	 xml:space="preserve">
<g id="Layer_3">
	<ellipse fill-rule="evenodd" clip-rule="evenodd" fill="#FFFFFF" cx="71.029" cy="73" rx="69.5" ry="70"/>
</g>
<g id="Background_copy_xA0_Image_1_">
	<path fill-rule="evenodd" clip-rule="evenodd" fill="#383838" d="M0,70.217c0.078-1.051,0.16-2.102,0.234-3.152
		c0.641-9.115,2.912-17.805,6.89-26.028c6.404-13.237,15.96-23.605,28.603-31.103c7.25-4.301,15.048-7.179,23.343-8.712
		c5.368-0.993,10.779-1.409,16.226-1.144c17.855,0.868,33.397,7.349,46.45,19.56c10.887,10.186,17.887,22.657,21.123,37.215
		c1.374,6.178,1.897,12.445,1.563,18.762c-0.939,17.719-7.417,33.142-19.537,46.094c-10.261,10.967-22.833,17.986-37.509,21.192
		c-4.001,0.875-8.058,1.378-12.154,1.515c-0.153,0.006-0.305,0.061-0.458,0.094c-1.686,0-3.372,0-5.057,0
		c-0.129-0.033-0.259-0.088-0.39-0.094c-4.438-0.159-8.823-0.735-13.147-1.736c-13.344-3.087-24.901-9.452-34.667-19.045
		c-5.96-5.854-10.742-12.567-14.36-20.099c-3.963-8.247-6.273-16.94-6.916-26.072C0.162,76.411,0.079,75.361,0,74.311
		C0,72.946,0,71.582,0,70.217z M140.083,72.27c0.107-37.031-29.861-67.501-67.142-67.844C35.383,4.08,5.07,34.123,4.459,71.054
		c-0.632,38.143,30.001,68.764,67.3,69.021C109.781,140.335,140.184,109.472,140.083,72.27z"/>
	<path fill-rule="evenodd" clip-rule="evenodd" fill="#383838" d="M53.702,17.672c0.923-0.222,0.987-0.746,0.834-1.352
		c-0.42-1.669-0.852-3.334-1.277-5.001c-0.131-0.515-0.349-0.893-0.987-0.811c-0.114,0.016-0.253-0.169-0.513-0.356
		c1.386-0.353,2.582-0.66,3.783-0.951c0.095-0.022,0.221,0.083,0.333,0.129c-0.046,0.11-0.064,0.28-0.145,0.318
		c-0.461,0.222-0.495,0.582-0.389,1.014c0.138,0.563,0.248,1.133,0.415,1.688c0.04,0.132,0.28,0.319,0.391,0.297
		c0.739-0.155,1.469-0.359,2.273-0.566c-0.205-0.755-0.394-1.462-0.591-2.169c-0.108-0.389-0.329-0.626-0.777-0.595
		c-0.1,0.007-0.208-0.116-0.312-0.18c0.089-0.104,0.16-0.271,0.268-0.301c1.081-0.293,2.167-0.57,3.257-0.831
		c0.114-0.027,0.26,0.082,0.392,0.128c-0.075,0.117-0.123,0.297-0.229,0.342c-0.5,0.213-0.553,0.595-0.442,1.043
		c0.428,1.729,0.857,3.458,1.302,5.183c0.126,0.488,0.33,0.916,0.988,0.799c0.097-0.016,0.231,0.178,0.473,0.38
		c-0.653,0.164-1.148,0.287-1.644,0.412c-0.718,0.184-1.433,0.376-2.155,0.54c-0.119,0.027-0.266-0.072-0.401-0.112
		c0.071-0.119,0.113-0.297,0.217-0.346c0.38-0.179,0.571-0.447,0.479-0.86c-0.195-0.874-0.412-1.743-0.633-2.668
		c-0.795,0.193-1.535,0.356-2.26,0.566c-0.112,0.032-0.251,0.307-0.223,0.435c0.17,0.762,0.373,1.517,0.59,2.265
		c0.102,0.35,0.312,0.587,0.739,0.576c0.154-0.004,0.313,0.142,0.47,0.219c-0.014,0.063-0.028,0.129-0.042,0.193
		c-1.234,0.315-2.468,0.636-3.708,0.929C54.089,18.05,53.948,17.86,53.702,17.672z"/>
	<path fill-rule="evenodd" clip-rule="evenodd" fill="#383838" d="M33.202,30.704c-1.967-1.216-3.908-2.418-5.853-3.612
		c-0.491-0.3-0.972-0.674-1.609-0.305c-0.074,0.043-0.264-0.114-0.483-0.219c1.058-0.903,2.028-1.734,2.999-2.564
		c0.065,0.013,0.13,0.025,0.195,0.038c-0.025,0.186,0.007,0.412-0.09,0.548c-0.191,0.267-0.295,0.481,0.033,0.7
		c1.199,0.801,2.401,1.6,3.603,2.395c0.021,0.014,0.069-0.01,0.173-0.027c-0.722-1.679-1.436-3.342-2.163-5.035
		c0.225-0.192,0.433-0.373,0.658-0.566c1.625,0.932,3.233,1.853,4.841,2.773c0.038-0.029,0.077-0.061,0.114-0.091
		c-0.436-0.931-0.869-1.861-1.306-2.79c-0.094-0.199-0.199-0.394-0.298-0.591c-0.491-0.976-0.491-0.976-1.454-0.438
		c-0.084-0.1-0.172-0.201-0.288-0.335c0.4-0.342,0.777-0.664,1.155-0.986c0.363-0.309,0.727-0.618,1.22-1.038
		c0.036,0.287,0.132,0.507,0.063,0.591c-0.354,0.429-0.254,0.864-0.073,1.3c0.869,2.09,1.747,4.173,2.621,6.259
		c0.053,0.126,0.11,0.253,0.16,0.367c-0.637,0.711-0.638,0.712-1.43,0.264c-1.286-0.729-2.571-1.459-4.006-2.273
		c0.09,0.311,0.122,0.472,0.182,0.621c0.487,1.207,0.981,2.409,1.472,3.614C33.977,30.137,33.975,30.138,33.202,30.704z"/>
	<path fill-rule="evenodd" clip-rule="evenodd" fill="#383838" d="M57.54,127.435c1.563,0.322,3.147,0.572,4.686,0.985
		c1.898,0.51,2.913,1.773,2.986,3.467c0.091,2.125-1.412,3.938-3.505,4.312c-1.325,0.236-2.59-0.065-3.868-0.286
		c-0.552-0.096-1.103-0.207-1.649-0.329c-0.109-0.024-0.197-0.141-0.295-0.213c0.104-0.093,0.211-0.266,0.31-0.261
		c0.631,0.032,0.836-0.351,0.934-0.874c0.33-1.77,0.667-3.539,0.997-5.31c0.078-0.418-0.03-0.736-0.457-0.935
		c-0.13-0.06-0.188-0.279-0.278-0.426C57.446,127.521,57.493,127.478,57.54,127.435z M62.897,131.832
		c0.026-1.617-0.483-2.572-1.455-2.968c-0.822-0.335-1.07-0.205-1.23,0.643c-0.03,0.156-0.055,0.314-0.084,0.473
		c-0.28,1.516-0.575,3.03-0.835,4.55c-0.135,0.789,0.262,1.241,1.044,1.111c0.446-0.074,0.93-0.297,1.263-0.6
		C62.6,134.128,62.828,132.88,62.897,131.832z"/>
	<path fill-rule="evenodd" clip-rule="evenodd" fill="#383838" d="M102.637,129.987c0.051-0.168,0.051-0.394,0.164-0.496
		c0.348-0.322,0.353-0.672,0.134-1.029c-0.98-1.605-1.973-3.205-2.971-4.802c-0.206-0.329-0.479-0.514-0.913-0.367
		c-0.139,0.048-0.335-0.073-0.506-0.117c0.007-0.063,0.015-0.127,0.022-0.19c1.303-0.782,2.574-1.627,3.918-2.334
		c2.047-1.075,3.92-0.718,5.065,0.854c1.329,1.826,1.21,4.045-0.458,5.607c-0.896,0.838-1.988,1.468-3.005,2.175
		c-0.408,0.283-0.849,0.521-1.274,0.778C102.755,130.04,102.696,130.014,102.637,129.987z M106.727,125.66
		c-0.205-1.716-0.954-3.125-2.436-4.066c-0.729-0.462-1.519-0.423-2.286,0.012c-0.393,0.224-0.492,0.458-0.232,0.864
		c0.627,0.978,1.224,1.976,1.838,2.961c0.36,0.579,0.705,1.168,1.103,1.72c0.392,0.542,0.82,0.565,1.33,0.134
		C106.541,126.863,106.711,126.306,106.727,125.66z"/>
	<path fill-rule="evenodd" clip-rule="evenodd" fill="#383838" d="M52.717,130.345c0.156,1.633,0.461,3.204,1.173,4.691
		c-0.06,0.02-0.119,0.04-0.179,0.061c-0.258-0.104-0.512-0.222-0.774-0.312c-1.276-0.426-1.884-1.347-1.988-2.65
		c-0.038-0.479-0.06-0.961-0.141-1.434c-0.044-0.264-0.196-0.509-0.299-0.763c-0.079,0.002-0.158,0.005-0.237,0.007
		c-0.265,0.806-0.565,1.602-0.77,2.421c-0.044,0.18,0.254,0.438,0.383,0.667c0.068,0.119,0.114,0.253,0.169,0.38
		c-0.119,0.029-0.255,0.117-0.351,0.082c-1.146-0.407-2.285-0.835-3.426-1.256c-0.016-0.06-0.031-0.116-0.046-0.175
		c0.15-0.068,0.313-0.214,0.449-0.193c0.451,0.069,0.747-0.084,0.901-0.5c0.668-1.8,1.335-3.6,1.992-5.403
		c0.132-0.361,0.023-0.653-0.318-0.877c-0.107-0.069-0.127-0.274-0.188-0.418c0.139-0.011,0.295-0.069,0.414-0.026
		c1.28,0.462,2.556,0.932,3.826,1.419c0.314,0.121,0.621,0.287,0.895,0.483c0.651,0.465,0.997,1.096,0.859,1.915
		c-0.146,0.867-0.641,1.451-1.497,1.7C53.317,130.235,53.06,130.272,52.717,130.345z M50.521,129.321
		c0.858,0.437,1.431,0.33,1.968-0.322c0.595-0.72,0.72-1.768,0.239-2.316c-0.162-0.185-0.406-0.331-0.641-0.403
		c-0.135-0.042-0.431,0.057-0.475,0.163C51.224,127.396,50.877,128.365,50.521,129.321z"/>
	<path fill-rule="evenodd" clip-rule="evenodd" fill="#383838" d="M21.875,113.61c0.184,0,0.419-0.072,0.541,0.015
		c0.387,0.275,0.717,0.209,1.029-0.079c1.386-1.271,2.768-2.548,4.146-3.83c0.311-0.288,0.428-0.615,0.148-1.011
		c-0.052-0.074,0.015-0.232,0.027-0.352c0.12,0.015,0.291-0.019,0.352,0.05c1.074,1.187,2.179,2.349,3.182,3.593
		c0.63,0.783,0.598,1.544,0.138,2.164c-0.514,0.694-1.156,0.852-2.202,0.542c-0.089-0.027-0.183-0.038-0.353-0.074
		c0.07,0.209,0.111,0.351,0.167,0.487c0.342,0.839,0.259,1.619-0.379,2.28c-0.667,0.69-1.508,0.862-2.369,0.493
		c-0.555-0.24-1.091-0.605-1.523-1.03c-1.013-0.992-1.959-2.055-2.932-3.089C21.857,113.716,21.866,113.663,21.875,113.61z
		 M26.875,113.157c-0.636,0.594-1.247,1.143-1.831,1.719c-0.286,0.282-0.587,0.626-0.309,1.055c0.272,0.421,0.718,0.599,1.208,0.486
		c0.803-0.181,1.363-0.696,1.613-1.469C27.785,114.238,27.477,113.661,26.875,113.157z M27.271,112.802
		c0.218,0.178,0.381,0.323,0.558,0.451c0.605,0.442,1.379,0.244,1.987-0.501c0.463-0.568,0.455-1.225-0.066-1.651
		c-0.121-0.101-0.441-0.139-0.542-0.054C28.566,111.585,27.961,112.166,27.271,112.802z"/>
	<path fill-rule="evenodd" clip-rule="evenodd" fill="#383838" d="M70.921,133.375c0.013-2.603,1.854-4.424,4.442-4.397
		c2.363,0.025,4.055,1.814,4.057,4.289c0.003,2.551-1.812,4.371-4.345,4.36C72.65,137.617,70.909,135.835,70.921,133.375z
		 M77.158,133.987c-0.029-0.004-0.058-0.01-0.087-0.014c0-0.241,0.02-0.484-0.003-0.722c-0.104-1.085-0.269-2.161-1.001-3.032
		c-0.704-0.837-1.77-0.778-2.298,0.162c-0.265,0.473-0.436,1.04-0.491,1.582c-0.158,1.545,0.009,3.046,0.976,4.348
		c0.361,0.485,0.864,0.715,1.473,0.618c0.602-0.096,0.965-0.508,1.105-1.063C76.988,135.253,77.054,134.615,77.158,133.987z"/>
	<path fill-rule="evenodd" clip-rule="evenodd" fill="#383838" d="M34.83,116.212c2.27-0.001,4.301,1.959,4.303,4.153
		c0.003,2.348-2.078,4.495-4.358,4.499c-2.301,0.003-4.382-2.012-4.379-4.24C30.398,118.284,32.479,116.214,34.83,116.212z
		 M32.13,122.179c-0.046,0.604,0.155,1.149,0.742,1.48c0.577,0.327,1.122,0.147,1.638-0.181c0.101-0.064,0.203-0.13,0.293-0.208
		c0.955-0.819,1.737-1.782,2.256-2.929c0.21-0.465,0.356-0.99,0.387-1.497c0.071-1.204-0.868-1.85-1.993-1.429
		C33.946,117.98,32.155,120.521,32.13,122.179z"/>
	<path fill-rule="evenodd" clip-rule="evenodd" fill="#383838" d="M128.453,80.739c0.006-2.472,1.729-4.254,4.101-4.242
		c2.606,0.014,4.503,1.808,4.493,4.25c-0.011,2.535-1.731,4.308-4.175,4.303C130.321,85.045,128.447,83.217,128.453,80.739z
		 M132.29,78.714c-0.854,0.199-1.61,0.265-2.268,0.553c-1.188,0.521-1.321,1.826-0.228,2.509c1.756,1.097,3.664,1.286,5.616,0.51
		c0.623-0.249,1.011-0.734,1.004-1.43c-0.005-0.656-0.408-1.12-0.985-1.306C134.375,79.213,133.291,78.975,132.29,78.714z"/>
	<path fill-rule="evenodd" clip-rule="evenodd" fill="#383838" d="M98.091,19.156c0.084-2.392,2.139-4.444,4.395-4.394
		c2.445,0.056,4.393,2.016,4.3,4.327c-0.094,2.341-2.208,4.439-4.381,4.348C99.979,23.337,98.014,21.386,98.091,19.156z
		 M100.024,20.665c-0.015,0.738,0.171,1.375,0.853,1.744c0.533,0.288,1.08,0.194,1.513-0.194c1.44-1.291,2.332-2.884,2.478-4.838
		c0.05-0.658-0.167-1.248-0.793-1.567c-0.613-0.312-1.194-0.1-1.676,0.3C100.97,17.291,100.242,18.851,100.024,20.665z"/>
	<path fill-rule="evenodd" clip-rule="evenodd" fill="#383838" d="M69.935,7.021c0.819,0,1.638-0.019,2.454,0.016
		c0.175,0.007,0.391,0.167,0.507,0.318c1.109,1.447,2.202,2.909,3.3,4.366c0.142,0.188,0.293,0.37,0.563,0.71
		c0.02-0.348,0.036-0.524,0.039-0.704c0.014-1.002,0.015-2.005,0.04-3.007c0.016-0.615-0.218-0.987-0.858-1.091
		c-0.159-0.026-0.294-0.203-0.344-0.404c0.976,0,1.952-0.005,2.929,0.009c0.082,0.001,0.218,0.119,0.228,0.196
		c0.01,0.082-0.096,0.257-0.157,0.259c-0.975,0.038-0.948,0.775-0.979,1.43c-0.094,2.001-0.159,4.004-0.236,6.007
		c-0.004,0.114-0.018,0.229-0.026,0.332c-0.718,0.179-1.16-0.056-1.572-0.648c-1.153-1.664-2.382-3.274-3.583-4.904
		c-0.1-0.135-0.219-0.259-0.329-0.388c-0.057,0.014-0.113,0.025-0.17,0.038c0,0.567,0.002,1.133-0.001,1.699
		c-0.005,0.839-0.009,1.68-0.025,2.52c-0.011,0.572,0.236,0.892,0.815,0.991c0.174,0.031,0.319,0.226,0.377,0.442
		c-1.014,0-2.027,0-3.042,0c-0.032-0.068-0.065-0.136-0.098-0.204c0.128-0.104,0.24-0.266,0.387-0.308
		c0.426-0.121,0.643-0.38,0.663-0.815c0.079-1.721,0.171-3.441,0.23-5.164c0.021-0.613-0.222-1.084-0.886-1.259
		c-0.146-0.037-0.252-0.223-0.377-0.34C69.835,7.085,69.885,7.053,69.935,7.021z"/>
	<path fill-rule="evenodd" clip-rule="evenodd" fill="#383838" d="M137.54,71.409c0,0.996,0,1.991,0,3.203
		c-0.228-0.245-0.345-0.396-0.487-0.52c-0.225-0.192-0.464-0.521-0.701-0.522c-1.802-0.017-3.606,0.012-5.407,0.072
		c-0.561,0.019-0.974,0.32-1.073,0.951c-0.021,0.137-0.222,0.245-0.34,0.367c-0.078-0.035-0.154-0.068-0.232-0.104
		c0-0.856-0.024-1.716,0.02-2.57c0.01-0.191,0.236-0.398,0.407-0.547c1.366-1.182,2.742-2.35,4.114-3.522
		c0.146-0.125,0.281-0.261,0.545-0.507c-0.505,0-0.852-0.014-1.196,0.003c-0.84,0.042-1.68,0.114-2.521,0.144
		c-0.641,0.022-0.941,0.336-0.999,0.96c-0.014,0.15-0.169,0.287-0.258,0.431c-0.074-0.027-0.147-0.054-0.222-0.081
		c0-1.032,0-2.064,0-3.248c0.164,0.137,0.371,0.222,0.404,0.35c0.147,0.588,0.538,0.732,1.081,0.719
		c2.145-0.053,4.289-0.089,6.434-0.132c0.079-0.001,0.158-0.001,0.271-0.001c0.187,0.575,0.202,1.033-0.349,1.474
		c-1.582,1.265-3.121,2.584-4.674,3.884c-0.197,0.164-0.388,0.335-0.674,0.582c0.589,0,1.055,0.016,1.52-0.004
		c0.941-0.038,1.88-0.117,2.822-0.138c0.651-0.013,0.933-0.337,1.011-0.948c0.019-0.153,0.175-0.29,0.27-0.436
		C137.382,71.315,137.46,71.362,137.54,71.409z"/>
	<path fill-rule="evenodd" clip-rule="evenodd" fill="#383838" d="M105.302,25.325c0.192,0,0.388,0.021,0.577-0.005
		c0.31-0.041,0.739-0.002,0.904-0.188c1.211-1.361,2.38-2.759,3.537-4.168c0.342-0.416,0.305-0.878-0.031-1.328
		c-0.094-0.126-0.059-0.349-0.083-0.526c0.061-0.021,0.122-0.039,0.183-0.059c0.646,0.532,1.304,1.052,1.926,1.611
		c0.128,0.116,0.167,0.383,0.167,0.58c-0.002,1.984-0.022,3.968-0.035,5.952c0,0.071,0.018,0.144,0.055,0.412
		c0.9-1.175,1.708-2.205,2.488-3.257c0.287-0.388,0.017-0.703-0.217-1.022c-0.106-0.145-0.119-0.358-0.174-0.542
		c0.068-0.029,0.135-0.06,0.202-0.09c0.809,0.67,1.618,1.339,2.428,2.009c-0.007,0.062-0.013,0.123-0.02,0.186
		c-0.165,0.015-0.368,0.097-0.49,0.03c-0.5-0.27-0.876-0.136-1.217,0.268c-1.267,1.501-2.537,2.998-3.806,4.496
		c-0.192,0.227-0.384,0.456-0.582,0.69c-0.615-0.278-0.887-0.658-0.855-1.354c0.095-2.08,0.115-4.165,0.164-6.246
		c0.003-0.17,0-0.34,0-0.51c-0.052-0.021-0.104-0.044-0.154-0.065c-0.938,1.211-1.892,2.409-2.803,3.639
		c-0.262,0.354-0.139,0.582,0.603,1.465c-0.302,0-0.524,0.071-0.629-0.011c-0.726-0.564-1.428-1.161-2.138-1.747
		C105.301,25.471,105.302,25.398,105.302,25.325z"/>
	<path fill-rule="evenodd" clip-rule="evenodd" fill="#383838" d="M84.646,12.555c1.296,0.264,2.569,0.521,3.842,0.783
		c0.074,0.015,0.141,0.065,0.328,0.156c-0.168,0.175-0.291,0.414-0.429,0.423c-0.43,0.029-0.535,0.318-0.602,0.635
		c-0.158,0.742-0.292,1.489-0.444,2.283c-1.76,0.183-3.493,0.094-5.06-0.917c-1.445-0.932-2.046-2.451-1.697-4.233
		c0.343-1.752,1.582-2.994,3.289-3.343c1.588-0.325,3.061,0.055,4.492,0.693c0.133,0.059,0.276,0.29,0.269,0.434
		c-0.035,0.638-0.124,1.272-0.192,1.902c-0.389,0.148-0.512,0.01-0.579-0.353c-0.243-1.295-0.829-1.948-1.904-2.081
		c-1.123-0.141-1.876,0.471-2.405,1.371c-0.743,1.264-0.921,2.639-0.591,4.059c0.191,0.822,0.66,1.457,1.504,1.736
		c0.556,0.184,0.789,0.062,0.919-0.498c0.099-0.429,0.145-0.871,0.264-1.294c0.17-0.6-0.069-0.917-0.634-1.062
		C84.683,13.165,84.367,13.069,84.646,12.555z"/>
	<path fill-rule="evenodd" clip-rule="evenodd" fill="#383838" d="M20.063,107.36c-0.223,0.176-0.25,0.208-0.285,0.224
		c-1.871,0.88-1.871,0.88-2.928-0.894c-0.718-1.205-1.426-2.415-2.159-3.61c-0.194-0.315-0.146-0.464,0.204-0.533
		c0.677,0.708,0.76,0.735,1.632,0.226c1.419-0.827,2.825-1.677,4.232-2.523c0.446-0.269,0.859-0.555,0.577-1.199
		c-0.041-0.092,0.135-0.28,0.253-0.506c1.08,1.81,2.085,3.493,3.126,5.237c-0.504,0.351-0.987,0.697-1.486,1.019
		c-0.081,0.052-0.314,0.025-0.341-0.03c-0.054-0.115-0.071-0.309-0.006-0.406c0.716-1.071,0.734-1.414,0-2.371
		c-0.095-0.124-0.401-0.229-0.516-0.167c-0.735,0.396-1.446,0.84-2.197,1.288c0.198,0.326,0.362,0.599,0.528,0.871
		c0.236,0.386,0.53,0.561,1.007,0.387c0.158-0.057,0.385,0.078,0.58,0.125c-0.003,0.068-0.008,0.138-0.011,0.207
		c-0.818,0.491-1.638,0.984-2.483,1.492c-0.098-0.144-0.185-0.271-0.311-0.455c1.342-0.72,0.49-1.439,0.042-2.251
		c-0.79,0.481-1.523,0.923-2.251,1.375c-0.35,0.216-0.405,0.513-0.218,0.877c0.683,1.336,1.243,1.664,2.332,1.355
		C19.542,107.053,19.766,107.239,20.063,107.36z"/>
	<path fill-rule="evenodd" clip-rule="evenodd" fill="#383838" d="M111.075,114.316c0.038-0.158,0.022-0.372,0.121-0.465
		c0.615-0.573,1.247-1.131,1.895-1.669c0.106-0.089,0.315-0.053,0.597-0.09c-0.612,1.062-0.625,1.071,0.029,1.884
		c0.54,0.672,1.123,1.308,1.668,1.975c0.316,0.387,0.627,0.784,0.883,1.212c0.637,1.063,0.737,2.171,0.006,3.226
		c-0.772,1.114-1.762,1.928-3.229,1.857c-0.751-0.036-1.323-0.461-1.809-0.975c-0.908-0.963-1.777-1.961-2.664-2.941
		c-0.589-0.65-0.744-0.676-1.66-0.167c0.042-0.289,0.005-0.525,0.103-0.613c0.899-0.826,1.821-1.626,2.736-2.435
		c0.062,0.012,0.124,0.022,0.186,0.033c-0.01,0.176,0.041,0.395-0.043,0.519c-0.215,0.318-0.219,0.607,0.023,0.877
		c1.015,1.134,2.008,2.29,3.08,3.367c0.541,0.542,1.273,0.787,2.046,0.408c0.758-0.37,1.139-1.207,0.843-2.031
		c-0.206-0.573-0.518-1.132-0.889-1.615c-0.561-0.729-1.203-1.396-1.833-2.069c-0.797-0.85-0.882-0.851-1.872-0.244
		C111.219,114.344,111.147,114.33,111.075,114.316z"/>
	<path fill-rule="evenodd" clip-rule="evenodd" fill="#383838" d="M91.416,125.993c1.808-0.76,3.614-1.517,5.483-2.301
		c0.304,0.607,0.604,1.208,0.904,1.808c-0.033,0.062-0.066,0.122-0.1,0.183c-0.189-0.062-0.437-0.067-0.559-0.192
		c-0.714-0.736-1.684-0.82-2.433-0.152c-0.085,0.076-0.085,0.27-0.087,0.408c0,0.093,0.067,0.187,0.105,0.278
		c0.278,0.662,0.556,1.325,0.874,2.081c0.427-0.196,0.862-0.32,1.189-0.579c0.18-0.142,0.176-0.511,0.261-0.776
		c0.06-0.189,0.129-0.375,0.194-0.562c0.072,0.01,0.143,0.021,0.213,0.032c0.372,0.877,0.743,1.754,1.18,2.787
		c-0.269-0.028-0.528,0.025-0.628-0.078c-0.731-0.746-0.722-0.757-1.7-0.325c-0.125,0.056-0.243,0.126-0.418,0.218
		c0.356,0.826,0.694,1.635,1.054,2.436c0.157,0.349,0.431,0.423,0.8,0.299c1.531-0.518,1.756-0.966,1.704-2.162
		c-0.006-0.156,0.196-0.321,0.302-0.482c0.071,0.027,0.143,0.055,0.214,0.082c0.128,0.644,0.272,1.284,0.369,1.933
		c0.017,0.11-0.142,0.315-0.264,0.369c-1.858,0.792-3.725,1.567-5.588,2.347c-0.053-0.03-0.106-0.06-0.159-0.09
		c0.073-0.161,0.101-0.39,0.226-0.471c0.43-0.279,0.528-0.628,0.337-1.082c-0.712-1.699-1.423-3.398-2.142-5.095
		c-0.171-0.402-0.425-0.666-0.933-0.549c-0.129,0.029-0.301-0.121-0.453-0.19C91.38,126.108,91.397,126.051,91.416,125.993z"/>
	<path fill-rule="evenodd" clip-rule="evenodd" fill="#383838" d="M10.64,93.278c-0.13-0.126-0.334-0.23-0.38-0.383
		c-0.295-0.997-0.563-2.002-0.819-3.01c-0.037-0.145,0.04-0.319,0.065-0.48c0.142,0.094,0.343,0.155,0.415,0.289
		c0.178,0.326,0.379,0.385,0.674,0.172c0.032-0.024,0.069-0.04,0.102-0.065c0.349-0.263,0.968-0.507,0.989-0.794
		c0.042-0.588-0.228-1.201-0.399-1.796c-0.026-0.088-0.21-0.169-0.331-0.187c-0.296-0.043-0.599-0.042-0.898-0.068
		c-0.47-0.04-0.799,0.04-0.707,0.645c0.022,0.142-0.132,0.311-0.205,0.467c-0.066-0.016-0.132-0.03-0.198-0.045
		c-0.25-0.918-0.501-1.837-0.791-2.902c0.27,0.085,0.521,0.09,0.573,0.195C9,85.859,9.508,85.918,10,85.976
		c1.951,0.222,3.904,0.422,5.856,0.631c0.219,0.023,0.441,0.085,0.656,0.066c0.607-0.053,0.852,0.298,0.987,0.878
		c-0.383,0.269-0.789,0.553-1.193,0.838c-1.574,1.105-3.149,2.209-4.72,3.319c-0.488,0.345-0.942,0.718-0.772,1.437
		C10.756,93.189,10.699,93.233,10.64,93.278z M12.019,87.038c0.169,0.587,0.301,1.05,0.454,1.579
		c0.725-0.482,1.365-0.909,2.005-1.336c-0.019-0.044-0.039-0.087-0.057-0.131C13.651,87.114,12.882,87.079,12.019,87.038z"/>
	<path fill-rule="evenodd" clip-rule="evenodd" fill="#383838" d="M80.751,128.73c1.956-0.394,3.911-0.789,5.927-1.194
		c0.166,0.608,0.336,1.179,0.467,1.758c0.022,0.1-0.099,0.277-0.202,0.339c-0.06,0.036-0.258-0.055-0.321-0.142
		c-0.785-1.093-1.099-1.212-2.381-0.796c-0.143,0.047-0.336,0.302-0.315,0.432c0.138,0.863,0.327,1.719,0.51,2.63
		c0.503-0.106,0.975-0.141,1.384-0.319c0.231-0.101,0.463-0.423,0.506-0.678c0.062-0.366,0.157-0.51,0.56-0.395
		c0.172,0.849,0.347,1.708,0.567,2.79c-0.311-0.159-0.594-0.208-0.643-0.343c-0.214-0.59-0.605-0.683-1.146-0.539
		c-0.326,0.087-0.66,0.142-1.095,0.232c0.207,0.901,0.367,1.783,0.635,2.63c0.065,0.204,0.489,0.298,0.75,0.437
		c0.15,0.08,0.308,0.149,0.461,0.222c-0.144,0.095-0.275,0.245-0.432,0.279c-1.077,0.235-2.156,0.454-3.24,0.658
		c-0.146,0.027-0.313-0.058-0.47-0.09c0.084-0.131,0.138-0.327,0.258-0.382c0.407-0.189,0.5-0.504,0.423-0.893
		c-0.366-1.847-0.735-3.692-1.115-5.536c-0.085-0.414-0.313-0.672-0.797-0.648c-0.126,0.006-0.261-0.182-0.392-0.279
		C80.685,128.846,80.718,128.787,80.751,128.73z"/>
	<path fill-rule="evenodd" clip-rule="evenodd" fill="#383838" d="M40.363,126.328c-0.266,0.246-0.492,0.442-0.706,0.651
		c-0.687,0.675-0.686,0.677,0.16,1.44c-0.292,0.043-0.499,0.143-0.622,0.079c-0.745-0.382-1.472-0.801-2.336-1.28
		c0.217-0.137,0.376-0.315,0.477-0.287c0.619,0.177,1.044-0.154,1.465-0.502c1.698-1.404,3.405-2.799,5.081-4.23
		c0.342-0.293,0.662-0.327,0.948-0.096c0.151,0.121,0.2,0.475,0.165,0.705c-0.322,2.097-0.682,4.188-1.007,6.283
		c-0.093,0.602-0.273,1.243,0.333,1.729c0.053,0.042,0.048,0.233-0.001,0.303c-0.05,0.067-0.223,0.124-0.29,0.088
		c-1.02-0.554-2.034-1.119-3.039-1.698c-0.076-0.045-0.13-0.247-0.093-0.328c0.033-0.072,0.238-0.141,0.318-0.104
		c0.559,0.262,0.688-0.043,0.776-0.512c0.226-1.208,0.237-1.206-0.858-1.818C40.889,126.615,40.644,126.482,40.363,126.328z
		 M42.355,126.574c0.159-0.88,0.294-1.623,0.429-2.367c-0.046-0.018-0.093-0.035-0.139-0.053c-0.563,0.524-1.125,1.051-1.735,1.619
		C41.413,126.052,41.843,126.291,42.355,126.574z"/>
	<path fill-rule="evenodd" clip-rule="evenodd" fill="#383838" d="M46.439,21.301c-1.121,0.68-2.097,1.271-3.072,1.861
		c-0.118,0.071-0.239,0.137-0.359,0.205c-0.062-0.026-0.123-0.052-0.184-0.079c0.061-0.176,0.074-0.403,0.194-0.518
		c0.273-0.26,0.273-0.462-0.013-0.688c-0.048-0.035-0.087-0.082-0.136-0.117c-0.353-0.252-0.769-0.766-1.045-0.699
		c-0.575,0.139-1.083,0.573-1.601,0.915c-0.07,0.046-0.072,0.25-0.05,0.371c0.057,0.314,0.157,0.621,0.216,0.936
		c0.093,0.498,0.331,0.638,0.806,0.409c0.12-0.058,0.312,0.037,0.472,0.061c0.005,0.073,0.009,0.146,0.015,0.217
		c-0.812,0.494-1.623,0.989-2.618,1.596c0.049-0.334,0.013-0.563,0.11-0.667c0.365-0.39,0.348-0.824,0.264-1.293
		c-0.379-2.131-0.736-4.263-1.14-6.388c-0.115-0.6-0.088-1.065,0.564-1.323c1.849,1.481,3.722,2.99,5.604,4.486
		c0.421,0.335,0.846,0.694,1.468,0.446C46.025,20.995,46.199,21.167,46.439,21.301z M39.52,19.129
		c-0.059,0.026-0.116,0.053-0.175,0.079c0.174,0.737,0.349,1.473,0.539,2.273c0.497-0.302,0.902-0.546,1.403-0.85
		C40.655,20.095,40.087,19.611,39.52,19.129z"/>
	<path fill-rule="evenodd" clip-rule="evenodd" fill="#383838" d="M127.844,106.443c-0.477,0.809-0.953,1.616-1.516,2.569
		c-0.123-0.268-0.279-0.444-0.242-0.555c0.186-0.544-0.085-0.936-0.383-1.315c-1.348-1.718-2.687-3.444-4.07-5.133
		c-0.378-0.461-0.47-0.848-0.075-1.378c1.265,0.234,2.56,0.474,3.854,0.712c1.122,0.206,2.243,0.416,3.366,0.615
		c0.464,0.083,0.908,0.093,1.292-0.28c0.098-0.097,0.331-0.054,0.635-0.092c-0.747,1.267-1.396,2.367-2.044,3.469
		c-0.064,0.014-0.128,0.026-0.192,0.039c-0.038-0.182-0.149-0.387-0.1-0.54c0.123-0.383,0.013-0.546-0.365-0.642
		c-1.361-0.342-1.366-0.353-2.097,0.932c-0.125,0.222-0.316,0.596-0.228,0.717c0.312,0.43,0.722,0.791,1.128,1.141
		c0.041,0.035,0.295-0.197,0.463-0.284c0.156-0.079,0.327-0.129,0.492-0.191C127.788,106.299,127.816,106.371,127.844,106.443z
		 M125.839,103.473c-0.859-0.184-1.615-0.348-2.372-0.51c-0.024,0.037-0.049,0.073-0.073,0.109c0.516,0.585,1.031,1.171,1.6,1.816
		C125.301,104.375,125.544,103.969,125.839,103.473z"/>
	<path fill-rule="evenodd" clip-rule="evenodd" fill="#383838" d="M120.251,107.402c-0.902-0.378-1.765-0.562-2.56,0.156
		c-0.625,0.565-0.794,1.285-0.631,2.083c0.358,1.748,2.71,3.597,4.48,3.54c1.433-0.046,2.308-1.191,1.964-2.594
		c-0.08-0.329-0.254-0.636-0.324-0.965c-0.042-0.196,0.036-0.418,0.06-0.629c0.077-0.013,0.153-0.025,0.23-0.038
		c0.399,0.588,0.809,1.171,1.188,1.771c0.067,0.107,0.047,0.318-0.012,0.444c-0.515,1.103-1.181,2.096-2.167,2.84
		c-1.506,1.136-3.324,1.202-4.816,0.184c-1.628-1.111-2.281-2.902-1.744-4.787c0.426-1.498,1.402-2.59,2.615-3.494
		c0.103-0.077,0.346-0.073,0.464-0.005c0.432,0.251,0.833,0.557,1.259,0.819C120.612,106.945,120.548,107.147,120.251,107.402z"/>
	<path fill-rule="evenodd" clip-rule="evenodd" fill="#383838" d="M14.862,78.558c-0.104-1.391-0.265-1.562-1.522-1.873
		c-0.159-0.039-0.275-0.256-0.411-0.391c0.034-0.051,0.067-0.101,0.1-0.152c0.812-0.055,1.623-0.109,2.34-0.157
		c0.063,2.401,0.374,4.701,0.9,7.036c-0.672,0.129-1.45,0.278-2.256,0.434c-0.192-0.284-0.231-0.47,0.135-0.655
		c1.192-0.604,1.257-0.768,0.967-2.125c-1.079,0.132-2.165,0.263-3.248,0.401c-0.795,0.103-1.587,0.219-2.381,0.317
		c-1.118,0.14-1.202,0.217-1.33,1.493c-0.203-0.205-0.398-0.308-0.417-0.436c-0.182-1.228-0.338-2.459-0.483-3.691
		c-0.014-0.118,0.106-0.252,0.164-0.378c0.114,0.1,0.299,0.181,0.332,0.302c0.124,0.475,0.413,0.666,0.881,0.612
		C10.697,79.053,12.76,78.807,14.862,78.558z"/>
	<path fill-rule="evenodd" clip-rule="evenodd" fill="#383838" d="M9.5,68.954c0.232,0.399,0.099,0.526-0.2,0.712
		c-0.534,0.33-1.082,0.7-1.481,1.174c-0.508,0.604-0.38,1.45,0.137,1.83c0.592,0.438,1.494,0.283,1.971-0.362
		c0.188-0.255,0.319-0.554,0.476-0.832c0.188-0.331,0.359-0.672,0.567-0.989c0.577-0.879,1.354-1.35,2.444-1.137
		c1.089,0.215,1.79,0.911,1.936,1.958c0.115,0.827-0.05,1.696-0.132,2.543c-0.013,0.13-0.236,0.312-0.387,0.341
		c-0.527,0.104-1.066,0.152-1.597,0.222c-0.216-0.366-0.096-0.541,0.262-0.682c0.694-0.271,1.309-0.642,1.341-1.512
		c0.019-0.518-0.201-0.887-0.684-1.087c-0.493-0.206-0.925-0.069-1.242,0.319c-0.25,0.307-0.428,0.673-0.626,1.02
		c-0.219,0.382-0.389,0.794-0.641,1.151c-1.17,1.662-3.545,1.456-4.411-0.389c-0.575-1.226-0.432-2.457,0.1-3.661
		c0.054-0.124,0.208-0.257,0.337-0.285C8.272,69.158,8.882,69.064,9.5,68.954z"/>
	<path fill-rule="evenodd" clip-rule="evenodd" fill="#383838" d="M125.363,98.627c-0.741-0.373-1.468-0.739-2.207-1.11
		c1.187-1.458,1.588-3.231,2.332-4.837c0.23-0.499,0.304-1.069,0.465-1.668c0.712,0.25,1.475,0.518,2.253,0.793
		c0.003,0.344-0.034,0.531-0.464,0.487c-1.216-0.124-1.547,0.131-1.89,1.377c1.927,0.803,3.858,1.616,5.799,2.408
		c0.398,0.163,0.729,0.027,0.973-0.359c0.093-0.146,0.312-0.214,0.474-0.317c0.046,0.056,0.093,0.111,0.139,0.167
		c-0.557,1.32-1.115,2.642-1.672,3.961c-0.063,0.021-0.127,0.04-0.19,0.06c-0.056-0.175-0.19-0.367-0.155-0.519
		c0.103-0.439,0.002-0.77-0.408-0.948c-1.921-0.839-3.847-1.664-5.759-2.488c-0.667,0.975-0.604,1.56,0.242,2.271
		C125.547,98.117,125.699,98.293,125.363,98.627z"/>
	<path fill-rule="evenodd" clip-rule="evenodd" fill="#383838" d="M12.93,99.267c-0.545-1.311-1.091-2.619-1.635-3.927
		c0.27-0.338,0.435-0.211,0.59,0.071c0.183,0.331,0.45,0.539,0.84,0.384c1.982-0.792,3.96-1.598,5.93-2.395
		c-0.349-1.231-0.668-1.453-1.848-1.425c-0.191,0.004-0.386-0.138-0.579-0.211c0.01-0.072,0.021-0.145,0.032-0.218
		c0.781-0.273,1.563-0.545,2.345-0.818c0.199,1.882,1.214,3.419,1.844,5.095c0.186,0.495,0.527,0.932,0.837,1.463
		c-0.673,0.331-1.4,0.688-2.147,1.057c-0.27-0.271-0.283-0.461,0.03-0.723c0.884-0.741,0.937-1.199,0.299-2.256
		C17.984,95.98,16.491,96.6,15,97.222c-0.406,0.17-0.808,0.352-1.211,0.528c-0.474,0.207-0.658,0.536-0.511,1.063
		c0.042,0.149-0.081,0.343-0.128,0.517C13.076,99.309,13.002,99.288,12.93,99.267z"/>
	<path fill-rule="evenodd" clip-rule="evenodd" fill="#383838" d="M98.715,12.228c-0.255,0.8-0.503,1.573-0.746,2.333
		c-0.408,0.017-0.523-0.108-0.482-0.502c0.115-1.118-0.227-1.521-1.445-1.766c-0.336,0.879-0.681,1.769-1.014,2.662
		c-0.386,1.028-0.759,2.063-1.143,3.096c-0.184,0.491-0.085,0.875,0.423,1.079c0.355,0.143,0.333,0.33,0.117,0.599
		c-1.349-0.508-2.693-1.016-4.038-1.521c-0.022-0.054-0.044-0.108-0.067-0.16c0.154-0.073,0.328-0.233,0.461-0.207
		c0.552,0.118,0.885-0.087,1.079-0.595c0.724-1.904,1.451-3.808,2.174-5.705c-0.995-0.61-1.565-0.521-2.26,0.332
		c-0.264,0.322-0.264,0.322-0.722,0.136c0.31-0.686,0.615-1.371,0.932-2.053c0.142-0.308,0.294-0.207,0.491-0.021
		c0.208,0.196,0.443,0.398,0.704,0.5c1.283,0.51,2.57,1.011,3.874,1.462c0.429,0.149,0.913,0.137,1.37,0.207
		C98.514,12.119,98.6,12.178,98.715,12.228z"/>
	<path fill-rule="evenodd" clip-rule="evenodd" fill="#383838" d="M46.467,18.701c0.168-0.137,0.291-0.237,0.337-0.274
		c0.609,0.354,1.144,0.754,1.744,0.994c0.897,0.362,1.78-0.04,1.969-0.792c0.193-0.769-0.366-1.524-1.306-1.683
		c-0.648-0.108-1.315-0.112-1.967-0.204c-0.949-0.133-1.645-0.62-1.93-1.569c-0.298-0.996-0.044-1.86,0.71-2.57
		c0.749-0.703,1.682-0.987,2.672-1.103c0.133-0.016,0.338,0.102,0.419,0.22c0.302,0.444,0.566,0.916,0.849,1.386
		c-0.238,0.336-0.434,0.309-0.729,0.053c-0.325-0.282-0.697-0.556-1.096-0.696c-0.645-0.227-1.364,0.203-1.525,0.814
		c-0.162,0.619,0.209,1.226,0.936,1.362c0.645,0.121,1.311,0.129,1.968,0.187c1.121,0.094,1.938,0.615,2.316,1.703
		c0.387,1.114,0.046,2.05-0.791,2.823c-0.852,0.787-1.892,1.099-3.028,1.104c-0.18,0.002-0.418-0.128-0.531-0.275
		C47.131,19.724,46.824,19.229,46.467,18.701z"/>
	<path fill-rule="evenodd" clip-rule="evenodd" fill="#383838" d="M64.141,15.588c0.107-0.128,0.192-0.33,0.326-0.372
		c0.481-0.15,0.613-0.486,0.567-0.929c-0.195-1.854-0.396-3.707-0.598-5.561c-0.044-0.4-0.238-0.65-0.673-0.72
		c-0.162-0.025-0.3-0.203-0.449-0.31c0.033-0.054,0.064-0.107,0.096-0.16c1.312-0.14,2.624-0.278,3.935-0.417
		c0.044,0.044,0.088,0.089,0.132,0.133c-0.109,0.138-0.192,0.353-0.331,0.398c-0.427,0.14-0.57,0.441-0.531,0.831
		c0.189,1.895,0.389,3.788,0.604,5.681c0.043,0.388,0.25,0.664,0.707,0.678c0.112,0.003,0.22,0.146,0.33,0.226
		c-0.122,0.095-0.235,0.256-0.366,0.271c-1.193,0.145-2.39,0.265-3.585,0.391C64.25,15.682,64.195,15.636,64.141,15.588z"/>
	<path fill-rule="evenodd" clip-rule="evenodd" fill="#383838" d="M134.302,91.985c-0.082-0.158-0.24-0.319-0.23-0.473
		c0.024-0.445-0.193-0.691-0.575-0.801c-1.825-0.525-3.653-1.038-5.482-1.55c-0.397-0.11-0.695,0.004-0.9,0.392
		c-0.06,0.115-0.254,0.158-0.388,0.233c-0.027-0.136-0.104-0.283-0.073-0.401c0.288-1.082,0.583-2.163,0.909-3.233
		c0.042-0.143,0.27-0.228,0.507-0.414c0.003,1.087,0.05,1.186,0.879,1.427c1.651,0.479,3.311,0.928,4.965,1.396
		c0.493,0.139,0.911,0.14,1.139-0.434c0.032-0.08,0.209-0.103,0.319-0.152c0.049,0.109,0.162,0.237,0.137,0.327
		c-0.331,1.212-0.682,2.419-1.028,3.627C134.422,91.948,134.363,91.968,134.302,91.985z"/>
	<path fill-rule="evenodd" clip-rule="evenodd" fill="#383838" d="M99.497,83.348c-2.937-0.114-5.46-1.002-7.723-2.662
		c-0.429-0.316-0.491-0.584-0.174-1.031c0.971-1.371,0.989-1.365,2.578-0.889c1.07,0.32,2.159,0.641,3.261,0.771
		c1.968,0.233,3.776-0.333,5.353-1.524c0.952-0.719,1.409-1.718,1.363-2.931c-0.056-1.508-0.535-2.84-1.689-3.845
		c-0.396-0.343-0.907-0.572-1.395-0.783c-0.344-0.147-0.596-0.007-0.682,0.421c-0.121,0.605-0.25,1.221-0.468,1.795
		c-0.57,1.505-1.968,2.21-3.478,1.81c-1.63-0.432-2.646-1.833-2.447-3.375c0.261-2.026,1.564-3.298,3.728-3.637
		c4.906-0.766,9,2.283,9.623,7.208c0.376,2.969-1.831,7.741-6.489,8.527C100.368,83.286,99.865,83.31,99.497,83.348z"/>
	<path fill-rule="evenodd" clip-rule="evenodd" fill="#383838" d="M72.283,17.335c29.855-0.087,54.991,24.112,54.92,55.054
		c-0.07,30.792-25.24,55.157-55.624,54.785c-29.731-0.364-54.193-24.507-54.236-54.917C17.299,41.931,41.919,17.335,72.283,17.335z
		 M47.009,70.653c-0.322-0.478-0.646-0.829-0.826-1.244c-0.688-1.586-1.082-3.279-0.87-4.979c0.165-1.327,0.651-2.633,1.137-3.894
		c0.907-2.358,1.842-4.69,2.143-7.23c0.288-2.43-0.147-4.627-1.808-6.5c-0.399-0.45-0.772-0.923-1.168-1.376
		c-2.573-2.94-3.221-6.178-1.558-9.795c0.275-0.599,0.496-1.226,0.673-1.86c0.057-0.201-0.044-0.54-0.197-0.68
		c-0.118-0.107-0.474-0.078-0.649,0.022c-0.904,0.511-1.846,0.985-2.662,1.619c-3.421,2.657-4.06,6.998-1.599,10.545
		c0.242,0.348,0.535,0.661,0.874,1.076c-0.349,0-0.584,0.008-0.819-0.002c-0.921-0.036-1.843-0.117-2.763-0.103
		c-0.446,0.008-0.919,0.124-1.325,0.311c-0.459,0.211-0.464,0.591-0.082,0.863c3.208,2.278,4.333,5.424,3.841,9.237
		c-0.138,1.071-0.344,1.212-1.373,0.899c-0.983-0.3-1.956-0.509-3.003-0.474c-1.021,0.031-1.943-0.323-2.7-1.104
		c-0.358-0.37-0.88-0.606-1.363-0.823c-1.502-0.674-3.247-0.651-4.632-1.724c-0.637-0.493-1.211-0.175-1.232,0.641
		c-0.042,1.557,0.014,3.117,0.08,4.675c0.034,0.813,0.061,1.668,0.711,2.296c0.927,0.895,1.35,1.975,1.39,3.262
		c0.022,0.72,0.229,1.399,0.884,1.888c0.477,0.356,0.394,0.87,0.121,1.358c-0.807,1.443-0.695,2.907,0.414,4.166
		c0.577,0.656,0.872,1.313,0.629,2.183c-0.08,0.283-0.083,0.602-0.052,0.896c0.022,0.219,0.102,0.522,0.257,0.611
		c0.132,0.074,0.453-0.049,0.612-0.18c0.34-0.28,0.672-0.311,0.966-0.018c0.478,0.476,1.012,0.936,1.342,1.507
		c0.641,1.106,0.317,1.696-0.928,1.943c-0.177,0.035-0.357,0.055-0.532,0.101c-0.213,0.054-0.432,0.102-0.628,0.195
		c-0.529,0.248-0.757,0.991-0.425,1.497c0.345,0.524,0.643,0.022,0.963-0.09c0.15-0.053,0.362-0.096,0.486-0.031
		c0.838,0.44,1.521,1.06,1.869,1.956c0.336,0.865-0.121,1.41-1.013,1.213c-0.493-0.109-0.664,0.061-0.702,0.516
		c-0.058,0.699-0.113,1.398-0.208,2.094C31.227,86.524,31.096,86.92,31,87.32c-0.086,0.006-0.172,0.012-0.258,0.018
		c-0.348-0.595-0.695-1.189-1.131-1.935c-0.172,0.378-0.311,0.562-0.338,0.76c-0.097,0.693-0.209,1.391-0.216,2.086
		c-0.007,0.891,0.535,1.259,1.394,0.973c0.393-0.131,0.742-0.389,1.113-0.585c0.388-0.202,0.766-0.436,1.171-0.594
		c0.602-0.232,1.166-0.048,1.47,0.482c0.388,0.677,0.915,0.896,1.639,0.832c0.239-0.021,0.484,0.027,0.721,0
		c0.656-0.071,1.067,0.212,1.304,0.813c0.245,0.621,0.708,0.978,1.353,1.17c0.862,0.257,1.699,0.596,2.553,0.881
		c0.904,0.301,1.317,0.928,1.462,1.859c0.078,0.505,0.402,0.971,0.609,1.456c0.192,0.45,0.419,0.893,0.553,1.36
		c0.114,0.398,0.132,0.83,0.165,1.249c0.147,1.912,1.099,3.026,3.05,3.338c1.434,0.229,2.895,0.369,4.26,0.977
		c0.335,0.148,0.897,0.022,1.257-0.165c0.851-0.442,1.683-0.941,2.447-1.52c1.111-0.839,2.243-1.187,3.566-0.559
		c0.445,0.21,0.868,0.138,1.306-0.129c0.526-0.323,0.989-0.097,1.382,0.363c0.244,0.284,0.663,0.509,1.036,0.571
		c0.503,0.085,1.046,0.049,1.555-0.038c1.48-0.252,2.946-0.592,4.43-0.816c0.48-0.072,1.053-0.009,1.487,0.196
		c0.733,0.348,1.413,0.4,2.135,0.078c0.915-0.408,1.815-0.848,2.742-1.225c0.434-0.177,0.933-0.371,1.375-0.32
		c1.334,0.152,2.541-0.137,3.7-0.763c0.333-0.18,0.701-0.297,1.039-0.47c0.678-0.35,1.35-0.388,2.087-0.152
		c0.375,0.119,0.841,0.121,1.224,0.018c1.542-0.417,3.076-0.872,4.597-1.364c0.665-0.216,1.156-0.065,1.494,0.499
		c0.254,0.426,0.583,0.509,1.043,0.509c7.264-0.013,14.527-0.009,21.791-0.009c0.256,0,0.512,0,0.961,0
		c-0.158-0.636-0.302-1.157-0.414-1.685c-0.127-0.597-0.218-1.2-0.338-1.799c-0.125-0.616-0.264-1.229-0.403-1.843
		c-0.096-0.418-0.292-0.833-0.292-1.25c-0.016-14.647-0.013-29.295-0.013-43.941c0-0.254,0-0.506,0-0.737
		c-20.332,0-40.572,0-60.749,0c0.559,0.602,1.166,1.165,1.668,1.809c1.896,2.435,2.746,5.154,1.968,8.219
		c-0.461,1.817-1.554,3.321-2.633,4.824c-1.497,2.082-3.014,4.151-4.428,6.289C48.189,68.111,47.7,69.31,47.009,70.653z"/>
	<path fill-rule="evenodd" clip-rule="evenodd" fill="#383838" d="M94.075,74.205c-0.504,1.49-1.299,2.725-2.287,3.843
		c-2.641,2.989-6.051,4.646-9.869,5.471c-5.535,1.197-11.071,1.156-16.533-0.452c-3.568-1.051-6.646-2.902-8.826-6.003
		c-0.601-0.852-1.033-1.821-1.61-2.858C68.107,74.205,81.039,74.205,94.075,74.205z"/>
	<path fill-rule="evenodd" clip-rule="evenodd" fill="#383838" d="M93.099,73.092c-12.396,0-24.793,0-37.189,0
		c-0.014-0.034-0.029-0.069-0.043-0.103c0.604-0.374,1.199-0.763,1.812-1.121c4.186-2.448,8.56-4.445,13.341-5.419
		c1.135-0.23,2.3-0.309,3.449-0.477c0.187-0.027,0.514-0.162,0.511-0.235c-0.011-0.268-0.055-0.622-0.233-0.775
		c-0.51-0.438-0.893-0.913-0.938-1.606c-0.069-1.063,0.541-1.92,1.567-2.2c0.955-0.259,1.968,0.211,2.412,1.12
		c0.442,0.909,0.218,1.988-0.633,2.57c-0.427,0.292-0.542,0.592-0.394,1.093C82.998,66.429,88.312,69.123,93.099,73.092z"/>
	<path fill-rule="evenodd" clip-rule="evenodd" fill="#383838" d="M58.052,93.713c0-0.649,0-1.262,0-1.809
		c1.545-0.245,3.057-0.415,4.535-0.736c1.917-0.418,3.691-1.19,5.188-2.517c0.144-0.128,0.391-0.196,0.591-0.196
		c4.032-0.011,8.065-0.011,12.097-0.001c0.203,0.001,0.457,0.051,0.602,0.177c2.047,1.778,4.51,2.534,7.124,2.912
		c0.87,0.126,1.749,0.187,2.664,0.282c0,0.603,0,1.217,0,1.888C79.944,93.713,69.027,93.713,58.052,93.713z"/>
	<path fill-rule="evenodd" clip-rule="evenodd" fill="#383838" d="M37.156,47.287c4.289-0.391,7.899,1.994,8.403,6.815
		c0.112,1.07-0.276,2.207-0.502,3.299c-0.406,1.955-0.901,3.893-1.282,5.854c-0.15,0.771-0.093,1.583-0.138,2.52
		c-0.345-0.424-0.647-0.753-0.904-1.115c-1.266-1.793-1.766-3.844-1.888-5.99c-0.097-1.719-0.108-3.443-0.12-5.167
		c-0.018-2.555-1.188-4.471-3.201-5.941C37.428,47.491,37.334,47.419,37.156,47.287z"/>
	<path fill-rule="evenodd" clip-rule="evenodd" fill="#383838" d="M45.151,71.561c1.954,0,3.811-0.002,5.667,0.01
		c0.107,0.001,0.265,0.108,0.313,0.208c1.468,3.108,4.001,5.266,6.567,7.396c0.923,0.765,1.853,1.523,2.834,2.33
		c-1.122,0.089-2.162-0.132-3.187-0.422c-3.344-0.952-6.111-2.866-8.542-5.28c-1.148-1.141-2.163-2.416-3.232-3.636
		C45.434,72.008,45.33,71.819,45.151,71.561z"/>
	<path fill-rule="evenodd" clip-rule="evenodd" fill="#383838" d="M44.954,49.065c-1.417-1.462-2.929-2.843-4.229-4.402
		c-2.414-2.896-1.824-5.879,0.431-8.531c0.402-0.473,0.79-0.957,1.185-1.436c0.083,0.068,0.167,0.137,0.25,0.203
		c-0.125,0.441-0.232,0.888-0.377,1.321c-0.868,2.598-0.612,5.069,0.727,7.464c0.711,1.272,1.352,2.587,1.974,3.906
		c0.191,0.407,0.213,0.894,0.312,1.343C45.135,48.978,45.044,49.021,44.954,49.065z"/>
	<path fill-rule="evenodd" clip-rule="evenodd" fill="#383838" d="M74.467,85.028c1.764,0,3.526-0.003,5.289,0
		c0.808,0.003,1.279,0.415,1.276,1.104c-0.003,0.685-0.473,1.128-1.274,1.13c-3.526,0.01-7.052,0.006-10.578,0.003
		c-0.562,0-1.043-0.177-1.241-0.753c-0.163-0.473-0.088-0.942,0.347-1.233c0.23-0.154,0.552-0.236,0.833-0.24
		C70.9,85.018,72.684,85.028,74.467,85.028z"/>
</g>
</svg>
